<svg xmlns="http://www.w3.org/2000/svg" xmlns:xlink="http://www.w3.org/1999/xlink" width="375" zoomAndPan="magnify" viewBox="0 0 375 374.999991" height="374.999991" preserveAspectRatio="xMidYMid meet" version="1.0"><defs><clipPath id="id1"><path d="M 0 160 L 196 160 L 196 256.996094 L 0 256.996094 Z M 0 160 " clip-rule="nonzero"/></clipPath><clipPath id="id2"><path d="M 179 160 L 375 160 L 375 256.996094 L 179 256.996094 Z M 179 160 " clip-rule="nonzero"/></clipPath></defs><path fill="rgb(100%, 100%, 100%)" d="M 279.234375 173.800781 C 244.273438 208.816406 187.5 208.730469 187.5 208.730469 C 187.5 208.730469 187.414062 151.871094 222.375 116.855469 C 257.339844 81.84375 314.113281 81.929688 314.113281 81.929688 C 314.113281 81.929688 314.199219 138.785156 279.234375 173.800781 Z M 279.234375 173.800781 " fill-opacity="1" fill-rule="nonzero"/><path fill="rgb(40.779114%, 22.349548%, 9.799194%)" d="M 187.503906 216.457031 C 187.5 216.457031 187.492188 216.457031 187.488281 216.457031 C 183.234375 216.449219 179.789062 213 179.785156 208.742188 C 179.78125 206.289062 180.113281 148.253906 216.917969 111.390625 C 253.632812 74.625 311.65625 74.203125 314.105469 74.203125 C 318.363281 74.203125 321.820312 77.652344 321.828125 81.917969 C 321.832031 84.371094 321.496094 142.40625 284.691406 179.265625 C 247.976562 216.035156 189.957031 216.457031 187.503906 216.457031 Z M 305.9375 90.128906 C 289.628906 91.601562 252.480469 97.632812 227.832031 122.320312 C 203.101562 147.085938 197.121094 184.207031 195.675781 200.527344 C 211.992188 199.054688 249.128906 193.023438 273.78125 168.335938 C 298.507812 143.570312 304.488281 106.449219 305.9375 90.128906 Z M 305.9375 90.128906 " fill-opacity="1" fill-rule="nonzero"/><path fill="rgb(100%, 100%, 100%)" d="M 152.625 116.855469 C 187.585938 151.871094 187.5 208.726562 187.5 208.726562 C 187.5 208.726562 130.726562 208.816406 95.765625 173.800781 C 60.800781 138.785156 60.886719 81.925781 60.886719 81.925781 C 60.886719 81.925781 117.660156 81.839844 152.625 116.855469 Z M 152.625 116.855469 " fill-opacity="1" fill-rule="nonzero"/><path fill="rgb(40.779114%, 22.349548%, 9.799194%)" d="M 187.511719 216.457031 C 187.507812 216.457031 187.5 216.457031 187.496094 216.457031 C 185.042969 216.457031 127.023438 216.035156 90.308594 179.265625 C 53.503906 142.40625 53.167969 84.371094 53.171875 81.917969 C 53.179688 77.660156 56.625 74.207031 60.878906 74.203125 C 63.34375 74.203125 121.367188 74.625 158.082031 111.390625 C 194.886719 148.25 195.21875 206.289062 195.214844 208.742188 C 195.210938 213 191.761719 216.449219 187.511719 216.457031 Z M 69.078125 90.132812 C 70.550781 106.472656 76.578125 143.65625 101.21875 168.335938 C 125.863281 193.015625 162.988281 199.050781 179.308594 200.527344 C 177.839844 184.183594 171.8125 147 147.167969 122.320312 C 122.523438 97.640625 85.398438 91.605469 69.078125 90.132812 Z M 69.078125 90.132812 " fill-opacity="1" fill-rule="nonzero"/><path fill="rgb(100%, 100%, 100%)" d="M 97.972656 168.460938 C 147.417969 168.460938 187.5 208.726562 187.5 208.726562 C 187.5 208.726562 147.417969 248.996094 97.972656 248.996094 C 48.527344 248.996094 8.445312 208.726562 8.445312 208.726562 C 8.445312 208.726562 48.527344 168.460938 97.972656 168.460938 Z M 97.972656 168.460938 " fill-opacity="1" fill-rule="nonzero"/><g clip-path="url(#id1)"><path fill="rgb(40.779114%, 22.349548%, 9.799194%)" d="M 97.972656 256.722656 C 45.921875 256.722656 4.710938 215.921875 2.980469 214.183594 C -0.0234375 211.167969 -0.0234375 206.289062 2.980469 203.273438 C 4.710938 201.535156 45.921875 160.734375 97.972656 160.734375 C 150.019531 160.734375 191.234375 201.535156 192.964844 203.273438 C 195.964844 206.289062 195.964844 211.167969 192.964844 214.183594 C 191.234375 215.921875 150.023438 256.722656 97.972656 256.722656 Z M 20.015625 208.71875 C 32.585938 219.230469 63.109375 241.265625 97.972656 241.265625 C 132.945312 241.265625 163.382812 219.253906 175.929688 208.738281 C 163.359375 198.226562 132.835938 176.191406 97.972656 176.191406 C 63 176.191406 32.5625 198.203125 20.015625 208.71875 Z M 20.015625 208.71875 " fill-opacity="1" fill-rule="nonzero"/></g><path fill="rgb(100%, 100%, 100%)" d="M 277.027344 248.996094 C 227.582031 248.996094 187.5 208.730469 187.5 208.730469 C 187.5 208.730469 227.582031 168.464844 277.027344 168.464844 C 326.472656 168.464844 366.554688 208.730469 366.554688 208.730469 C 366.554688 208.730469 326.472656 248.996094 277.027344 248.996094 Z M 277.027344 248.996094 " fill-opacity="1" fill-rule="nonzero"/><g clip-path="url(#id2)"><path fill="rgb(40.779114%, 22.349548%, 9.799194%)" d="M 277.027344 256.722656 C 224.980469 256.722656 183.765625 215.921875 182.035156 214.183594 C 179.035156 211.167969 179.035156 206.289062 182.035156 203.273438 C 183.765625 201.535156 224.980469 160.734375 277.027344 160.734375 C 329.078125 160.734375 370.289062 201.535156 372.019531 203.273438 C 375.023438 206.289062 375.023438 211.167969 372.019531 214.183594 C 370.289062 215.921875 329.078125 256.722656 277.027344 256.722656 Z M 199.070312 208.71875 C 211.640625 219.230469 242.164062 241.265625 277.027344 241.265625 C 312 241.265625 342.4375 219.253906 354.984375 208.738281 C 342.414062 198.226562 311.890625 176.191406 277.027344 176.191406 C 242.058594 176.191406 211.617188 198.203125 199.070312 208.71875 Z M 199.070312 208.71875 " fill-opacity="1" fill-rule="nonzero"/></g><path fill="rgb(100%, 100%, 100%)" d="M 227.707031 119.066406 C 227.707031 168.585938 187.5 208.730469 187.5 208.730469 C 187.5 208.730469 147.292969 168.585938 147.292969 119.066406 C 147.292969 69.546875 187.5 29.40625 187.5 29.40625 C 187.5 29.40625 227.707031 69.546875 227.707031 119.066406 Z M 227.707031 119.066406 " fill-opacity="1" fill-rule="nonzero"/><path fill="rgb(40.779114%, 22.349548%, 9.799194%)" d="M 187.5 216.457031 C 185.527344 216.457031 183.558594 215.707031 182.050781 214.203125 C 180.320312 212.472656 139.578125 171.195312 139.578125 119.070312 C 139.578125 66.941406 180.316406 25.667969 182.050781 23.933594 C 185.0625 20.925781 189.9375 20.925781 192.949219 23.933594 C 194.683594 25.667969 235.421875 66.941406 235.421875 119.070312 C 235.421875 171.195312 194.683594 212.472656 192.949219 214.203125 C 191.441406 215.707031 189.472656 216.457031 187.5 216.457031 Z M 187.507812 40.996094 C 177.015625 53.585938 155.011719 84.152344 155.011719 119.066406 C 155.011719 154.089844 176.992188 184.578125 187.492188 197.140625 C 197.988281 184.546875 219.988281 153.980469 219.988281 119.066406 C 219.988281 84.042969 198.007812 53.558594 187.507812 40.996094 Z M 187.507812 40.996094 " fill-opacity="1" fill-rule="nonzero"/></svg>